<svg xmlns="http://www.w3.org/2000/svg" width="64" height="64" viewBox="0 0 64 64">
  <rect width="64" height="64" rx="14" fill="#111A2B" />
  <circle cx="32" cy="26" r="14" fill="#5564D8" />
  <circle cx="32" cy="26" r="6.5" fill="#F4B740" />
  <path
    d="M28.2 41.5c-3.5 1.4-6.2 4.4-7.2 8-0.3 1 0.4 2 1.4 2h19.2c1 0 1.7-1 1.4-2-1-3.6-3.7-6.6-7.2-8-1-.4-2.1-.4-3.1 0-0.8.3-1.6.3-2.4 0z"
    fill="#F1F5FF"
    opacity="0.85"
  />
  <path
    d="M32 12c3.8 0 7 2.2 7 5 0 2.8-3.2 5-7 5s-7-2.2-7-5c0-2.8 3.2-5 7-5z"
    fill="#94A3FF"
    opacity="0.6"
  />
</svg>
